<?xml version="1.0" standalone="no"?>
<!DOCTYPE svg PUBLIC "-//W3C//DTD SVG 20010904//EN"
 "http://www.w3.org/TR/2001/REC-SVG-20010904/DTD/svg10.dtd">
<svg version="1.0" xmlns="http://www.w3.org/2000/svg"
 width="400.000000pt" height="400.000000pt" viewBox="0 0 400.000000 400.000000"
 preserveAspectRatio="xMidYMid meet">
<metadata>
Created by potrace 1.14, written by Peter Selinger 2001-2017
</metadata>
<g transform="translate(0.000000,400.000000) scale(0.100000,-0.100000)"
fill="#000000" stroke="none">
<path d="M1240 3840 c0 -19 -5 -30 -14 -30 -8 0 -17 -13 -21 -29 -5 -24 -12
-29 -47 -34 -22 -3 -44 -10 -47 -15 -3 -6 -19 -14 -34 -17 -15 -4 -27 -13 -27
-21 0 -8 -7 -14 -15 -14 -8 0 -15 -7 -15 -15 0 -10 10 -15 30 -15 20 0 30 -5
30 -15 0 -10 -10 -15 -30 -15 -20 0 -30 5 -30 15 0 10 -10 15 -30 15 -20 0
-30 -5 -30 -15 0 -8 -9 -15 -20 -15 -11 0 -20 -7 -20 -15 0 -10 -10 -15 -26
-15 -27 0 -104 -66 -104 -89 0 -6 -13 -11 -30 -11 -27 0 -30 -3 -30 -30 0 -20
-5 -30 -15 -30 -8 0 -15 -5 -15 -11 0 -15 -74 -89 -89 -89 -6 0 -11 -7 -11
-15 0 -8 -4 -15 -9 -15 -8 0 -24 -37 -22 -52 1 -5 -6 -8 -14 -8 -8 0 -15 -7
-15 -15 0 -8 -7 -15 -15 -15 -8 0 -15 -6 -15 -12 0 -20 -46 -58 -69 -58 -15 0
-21 -6 -21 -22 0 -39 -12 -68 -26 -68 -9 0 -14 -12 -14 -35 0 -24 -5 -35 -15
-35 -8 0 -15 -7 -15 -15 0 -8 -7 -15 -15 -15 -8 0 -15 7 -15 15 0 8 -7 15 -15
15 -10 0 -15 -10 -15 -30 0 -16 5 -30 10 -30 6 0 10 -7 10 -15 0 -8 -7 -15
-15 -15 -10 0 -15 -10 -15 -29 0 -16 -6 -31 -15 -35 -8 -3 -15 -12 -15 -20 0
-8 -5 -16 -11 -18 -5 -2 -13 -22 -16 -46 -3 -26 -11 -42 -19 -42 -10 0 -14
-17 -14 -65 0 -49 -3 -65 -14 -65 -8 0 -17 -16 -21 -37 -4 -21 -11 -43 -16
-49 -5 -6 -11 -53 -14 -104 -2 -51 -9 -96 -15 -100 -14 -9 -17 -399 -3 -408 6
-4 14 -54 18 -112 4 -58 12 -108 18 -112 5 -3 12 -31 15 -62 3 -39 9 -56 18
-56 10 0 14 -14 14 -50 0 -38 4 -50 15 -50 10 0 15 -10 15 -30 0 -18 6 -33 15
-36 9 -4 15 -19 15 -35 0 -18 5 -29 14 -29 7 0 16 -14 20 -31 3 -16 13 -37 21
-45 8 -9 15 -24 15 -35 0 -10 7 -19 15 -19 10 0 15 -10 15 -30 0 -20 5 -30 15
-30 8 0 15 -7 15 -15 0 -8 7 -15 15 -15 10 0 15 -10 15 -30 0 -20 5 -30 15
-30 8 0 15 -9 15 -20 0 -11 6 -20 14 -20 8 0 17 -14 21 -30 4 -17 13 -30 21
-30 8 0 14 -7 14 -15 0 -8 7 -15 15 -15 8 0 15 -7 15 -15 0 -8 7 -15 15 -15 8
0 15 -7 15 -15 0 -9 7 -18 15 -21 8 -4 15 -12 15 -20 0 -8 7 -14 15 -14 8 0
15 -7 15 -15 0 -8 9 -15 20 -15 11 0 20 -7 20 -15 0 -8 7 -15 15 -15 8 0 15
-7 15 -15 0 -8 7 -15 15 -15 8 0 15 -7 15 -15 0 -8 7 -15 15 -15 8 0 15 -7 15
-15 0 -8 6 -15 13 -15 7 0 20 -9 30 -20 9 -11 23 -20 31 -20 8 0 16 -7 20 -15
3 -8 12 -15 21 -15 8 0 15 -7 15 -15 0 -8 7 -15 15 -15 8 0 15 -7 15 -15 0
-10 10 -15 30 -15 19 0 30 -5 30 -14 0 -8 13 -17 29 -21 16 -3 32 -13 35 -21
3 -8 12 -14 21 -14 8 0 15 -4 15 -10 0 -5 16 -12 35 -16 20 -3 35 -12 35 -20
0 -10 13 -14 40 -14 29 0 40 -4 40 -15 0 -10 11 -15 35 -15 24 0 35 -5 35 -15
0 -10 10 -15 30 -15 16 0 33 -6 37 -13 4 -8 26 -17 47 -20 22 -4 42 -11 46
-17 4 -7 35 -14 69 -17 42 -4 61 -10 61 -19 0 -11 19 -14 79 -14 55 0 81 -4
83 -12 4 -10 56 -14 206 -16 168 -3 202 -6 202 -18 0 -8 7 -14 15 -14 8 0 15
7 15 15 0 8 9 15 20 15 11 0 20 -7 20 -15 0 -8 5 -15 10 -15 6 0 10 7 10 15 0
13 21 15 125 15 96 0 125 3 125 13 0 23 29 54 37 40 5 -6 20 -14 34 -18 21 -5
27 -2 31 13 5 18 12 20 47 15 32 -4 42 -2 47 11 7 17 64 23 64 6 0 -5 7 -10
15 -10 9 0 15 9 15 25 0 16 6 25 15 25 8 0 15 -4 15 -10 0 -5 9 -10 20 -10 15
0 20 7 20 28 0 18 3 23 9 14 7 -11 9 -11 14 2 5 13 22 16 82 16 60 0 75 3 75
15 0 8 9 15 20 15 11 0 20 -7 20 -15 0 -8 7 -15 15 -15 8 0 15 -7 15 -15 0 -9
9 -15 21 -15 18 0 20 4 14 30 -6 28 -5 30 24 30 21 0 31 5 31 15 0 8 9 15 20
15 11 0 20 7 20 15 0 8 9 15 19 15 11 0 26 7 34 15 8 7 28 17 43 21 16 4 32
12 36 17 3 6 26 12 50 13 74 3 78 4 78 19 0 11 11 15 40 15 29 0 40 -4 40 -15
0 -10 11 -15 35 -15 24 0 35 5 35 15 0 8 -7 15 -15 15 -8 0 -15 7 -15 15 0 8
-7 15 -15 15 -8 0 -15 6 -15 14 0 8 -11 17 -25 20 -27 7 -65 40 -65 56 0 12
53 1 58 -12 9 -22 32 -6 32 22 0 20 5 30 15 30 8 0 15 7 15 15 0 8 7 15 15 15
8 0 15 -7 15 -15 0 -8 7 -15 15 -15 8 0 15 7 15 15 0 8 -7 15 -15 15 -10 0
-15 10 -15 30 0 32 23 42 34 15 9 -24 24 -17 31 14 7 35 35 44 104 35 54 -7
65 1 55 41 -5 22 -11 25 -50 25 -54 0 -63 27 -11 32 31 3 32 4 29 46 -3 33 0
42 12 42 9 0 16 -7 16 -16 0 -12 10 -14 47 -12 57 4 68 24 19 34 -21 3 -36 12
-36 20 0 12 -48 21 -82 15 -5 0 -8 4 -8 9 0 6 7 10 15 10 9 0 18 7 21 15 4 8
10 12 15 9 5 -3 9 0 9 5 0 6 7 11 15 11 8 0 15 6 15 13 0 7 9 20 20 30 11 9
20 26 20 37 0 11 7 20 15 20 10 0 15 10 15 30 0 20 5 30 15 30 12 0 15 10 14
45 -2 28 -7 45 -15 45 -7 0 -15 4 -18 8 -9 15 6 52 20 52 11 0 14 17 14 70 0
56 -3 70 -15 70 -10 0 -15 10 -15 30 0 20 5 30 15 30 10 0 15 10 15 30 0 20
-5 30 -15 30 -8 0 -15 7 -15 15 0 8 7 15 15 15 13 0 15 44 15 335 0 285 -2
335 -14 335 -10 0 -17 16 -22 45 -5 36 -11 46 -29 51 -18 4 -24 15 -28 46 -3
23 -13 45 -21 50 -20 11 -21 28 -1 28 8 0 15 -7 15 -15 0 -20 29 -19 36 0 8
19 -4 85 -15 85 -5 0 -11 -9 -14 -20 -4 -15 -14 -20 -36 -20 -32 0 -36 7 -25
48 4 15 14 22 30 22 15 0 24 6 24 15 0 11 -12 15 -45 15 -32 0 -45 4 -45 14 0
7 -9 16 -21 19 -12 3 -18 10 -15 15 3 5 -13 12 -35 15 -43 6 -57 13 -45 24 12
12 169 8 174 -5 5 -17 42 -15 42 3 0 8 -9 15 -19 15 -11 0 -21 5 -23 11 -2 5
-22 13 -46 16 -26 3 -42 11 -42 19 0 8 -9 14 -20 14 -11 0 -20 7 -20 15 0 12
-13 15 -60 15 -47 0 -60 3 -60 15 0 8 7 15 15 15 8 0 15 7 15 15 0 8 -7 15
-15 15 -8 0 -15 7 -15 15 0 8 -6 15 -14 15 -8 0 -16 -7 -20 -15 -8 -22 -26
-18 -26 5 0 11 -7 20 -15 20 -8 0 -15 7 -15 15 0 8 7 15 16 15 11 0 14 5 10
17 -4 9 -1 20 6 25 9 6 5 7 -9 3 -14 -4 -23 -2 -23 4 0 6 -7 11 -16 11 -9 0
-22 7 -28 15 -6 9 -21 17 -34 18 -23 1 -27 15 -23 70 2 27 2 27 -61 27 -39 0
-58 4 -49 9 11 7 11 9 0 14 -8 3 -2 6 14 6 17 1 27 6 27 16 0 11 -12 15 -45
15 -33 0 -45 -4 -45 -15 0 -8 -7 -15 -15 -15 -8 0 -15 7 -15 15 0 8 -6 15 -14
15 -8 0 -17 14 -21 30 -5 24 -14 32 -36 37 -16 3 -32 10 -35 14 -3 5 -10 7
-15 4 -5 -4 -9 3 -9 14 0 12 -7 21 -15 21 -9 0 -15 -9 -15 -25 0 -16 -6 -25
-15 -25 -8 0 -15 4 -15 9 0 5 -16 12 -35 15 -29 6 -35 11 -35 31 0 16 -6 25
-15 25 -8 0 -15 -4 -15 -10 0 -5 -4 -10 -10 -10 -5 0 -10 7 -10 15 0 8 -9 15
-20 15 -11 0 -20 7 -20 14 0 11 -14 16 -47 18 -44 3 -48 5 -51 31 -3 23 -8 27
-33 27 -16 0 -29 -4 -29 -9 0 -5 -15 -13 -32 -16 -18 -4 -38 -11 -44 -16 -8
-7 -14 -2 -18 15 -7 27 -30 36 -103 36 -40 0 -53 4 -53 15 0 8 5 15 10 15 6 0
10 7 10 15 0 12 -13 15 -60 15 -47 0 -60 3 -60 15 0 10 -10 15 -30 15 -20 0
-30 5 -30 15 0 10 -11 15 -35 15 -24 0 -35 -5 -35 -15 0 -11 -12 -15 -45 -15
-38 0 -45 3 -45 20 0 18 5 19 45 13 41 -5 45 -4 45 16 0 17 -6 21 -30 21 -16
0 -30 5 -30 10 0 12 -37 13 -44 1 -9 -14 -76 -23 -90 -12 -7 6 -17 7 -21 3 -5
-4 -5 -1 -1 6 4 7 12 10 17 7 5 -4 9 -1 9 4 0 6 7 11 15 11 23 0 18 17 -7 24
-15 3 -27 0 -34 -9 -15 -20 -64 -20 -64 1 0 9 -7 14 -17 12 -25 -5 -28 -28 -4
-28 28 0 27 -26 -1 -34 -35 -9 -38 -8 -38 14 0 13 -7 20 -20 20 -16 0 -20 7
-20 30 0 20 5 30 15 30 8 0 15 7 15 15 0 10 -10 15 -30 15 -20 0 -30 -5 -30
-15 0 -12 -16 -15 -80 -15 -64 0 -80 -3 -80 -15 0 -8 -7 -15 -15 -15 -10 0
-15 10 -15 30 0 29 -2 30 -45 30 -31 0 -47 -5 -51 -15 -4 -9 -19 -15 -35 -15
-19 0 -29 -5 -29 -15 0 -10 -10 -15 -29 -15 -16 0 -31 6 -35 15 -7 19 -26 20
-26 1 0 -10 -16 -17 -44 -21 -25 -4 -47 -13 -50 -21 -3 -8 -12 -14 -21 -14 -8
0 -15 -7 -15 -15 0 -8 -7 -15 -15 -15 -10 0 -15 11 -15 35 0 24 5 35 15 35 11
0 15 12 15 45 0 33 -4 45 -15 45 -10 0 -15 -10 -15 -30z m380 -80 c0 -5 -7
-10 -15 -10 -8 0 -15 5 -15 10 0 6 7 10 15 10 8 0 15 -4 15 -10z m250 -30 c0
-5 -13 -10 -30 -10 -16 0 -30 5 -30 10 0 6 14 10 30 10 17 0 30 -4 30 -10z
m160 -30 c0 -5 -8 -10 -17 -10 -15 0 -16 2 -3 10 19 12 20 12 20 0z m-913 -26
c-3 -3 -12 -4 -19 -1 -8 3 -5 6 6 6 11 1 17 -2 13 -5z m2053 -354 c0 -5 -4
-10 -10 -10 -5 0 -10 5 -10 10 0 6 5 10 10 10 6 0 10 -4 10 -10z m-1406 -66
c9 -8 16 -22 16 -30 0 -8 7 -14 15 -14 8 0 15 -7 15 -15 0 -9 7 -18 15 -21 8
-4 15 -12 15 -20 0 -9 11 -14 31 -14 17 0 37 -7 45 -15 9 -8 24 -15 35 -15 14
0 19 -7 19 -30 0 -20 5 -30 15 -30 8 0 15 -9 15 -20 0 -11 7 -20 15 -20 8 0
15 -7 15 -15 0 -8 6 -15 14 -15 8 0 17 -13 21 -30 5 -25 11 -30 36 -30 28 0
29 -1 29 -50 0 -27 5 -50 10 -50 6 0 10 -27 10 -60 0 -36 -4 -60 -11 -60 -6 0
-10 10 -9 23 1 12 2 39 1 59 -1 32 -5 37 -31 43 -16 4 -30 12 -30 19 0 7 -9
21 -20 31 -11 10 -20 24 -20 32 0 7 -7 13 -15 13 -10 0 -15 10 -15 30 0 23 -5
30 -19 30 -11 0 -27 7 -36 16 -9 9 -40 18 -75 21 -41 4 -60 10 -60 19 0 9 -12
14 -35 14 -24 0 -35 5 -35 15 0 8 -5 15 -10 15 -6 0 -13 -7 -16 -15 -4 -8 -12
-15 -20 -15 -8 0 -14 7 -14 15 0 13 -21 15 -125 15 l-125 0 0 -30 c0 -33 -9
-30 109 -34 25 -1 47 -8 49 -14 5 -16 32 -15 32 1 0 9 3 8 9 -2 6 -9 11 -10
15 -2 12 18 55 12 77 -10 17 -17 19 -23 8 -31 -20 -13 -222 -4 -227 10 -2 7
-19 12 -38 12 -29 0 -34 -3 -34 -24 0 -19 7 -26 30 -31 17 -4 30 -13 30 -21 0
-9 11 -14 30 -14 18 0 33 -6 36 -15 4 -8 12 -15 20 -15 8 0 14 -6 14 -14 0 -8
14 -17 30 -21 17 -4 30 -13 30 -21 0 -8 7 -14 15 -14 8 0 15 -7 15 -15 0 -8 7
-15 15 -15 8 0 15 -7 15 -15 0 -12 -15 -15 -75 -15 -60 0 -75 3 -75 15 0 11
-12 15 -45 15 -27 0 -47 5 -52 14 -5 8 -32 15 -66 18 -33 3 -62 9 -65 15 -9
12 -190 27 -226 17 -14 -3 -26 -12 -26 -20 0 -8 -7 -14 -15 -14 -8 0 -15 -7
-15 -15 0 -8 -7 -15 -15 -15 -8 0 -15 -7 -15 -15 0 -8 -9 -15 -20 -15 -11 0
-20 -7 -20 -15 0 -8 -7 -15 -15 -15 -8 0 -15 -7 -15 -15 0 -8 -7 -15 -15 -15
-8 0 -15 -9 -15 -20 0 -11 -7 -20 -15 -20 -8 0 -15 -7 -15 -15 0 -8 7 -15 15
-15 8 0 15 -7 15 -15 0 -8 7 -15 15 -15 10 0 15 -10 15 -30 0 -20 -5 -30 -15
-30 -8 0 -15 -7 -15 -15 0 -8 -7 -15 -15 -15 -8 0 -15 7 -15 15 0 8 7 15 15
15 10 0 15 10 15 30 0 20 -5 30 -15 30 -8 0 -15 -7 -15 -15 0 -10 -10 -15 -29
-15 -24 0 -30 -5 -35 -30 -3 -18 -12 -30 -21 -30 -10 0 -15 10 -15 30 0 20 -5
30 -15 30 -10 0 -15 11 -15 35 0 24 -5 35 -15 35 -12 0 -15 -14 -15 -64 0 -57
2 -64 21 -69 15 -4 20 -11 15 -22 -3 -9 -6 -43 -6 -76 0 -46 -3 -59 -15 -59
-12 0 -15 16 -15 80 0 64 -3 80 -15 80 -12 0 -15 13 -15 60 0 53 -2 60 -20 60
-13 0 -20 7 -20 20 0 11 -4 20 -10 20 -18 0 -11 18 9 25 27 8 71 -5 71 -21 0
-8 7 -14 15 -14 8 0 15 9 15 20 0 11 6 20 14 20 9 0 16 17 20 45 4 25 11 45
17 45 14 0 11 38 -3 44 -9 3 -8 8 5 16 9 6 17 17 17 25 0 7 6 15 13 18 7 2 8
8 3 13 -5 5 -11 4 -13 -3 -3 -7 -13 -13 -24 -13 -10 0 -19 -7 -19 -15 0 -8 -7
-15 -15 -15 -8 0 -15 7 -15 15 0 8 -7 15 -15 15 -19 0 -19 19 0 26 8 4 15 12
15 20 0 8 9 14 20 14 11 0 20 7 20 15 0 8 7 15 15 15 8 0 15 6 15 14 0 8 13
17 30 21 16 4 30 11 30 16 0 5 7 9 15 9 8 0 15 6 15 14 0 8 13 17 29 21 20 4
31 14 35 31 6 23 26 34 26 14 0 -5 9 -10 20 -10 11 0 20 7 20 15 0 8 -7 15
-15 15 -8 0 -15 7 -15 15 0 9 9 15 24 15 13 0 26 -7 30 -15 8 -21 28 -19 49 5
11 13 29 20 52 20 24 0 35 5 35 15 0 8 7 15 15 15 8 0 15 7 15 15 0 12 19 15
110 15 67 0 110 4 110 10 0 6 7 10 15 10 8 0 15 -4 15 -10 0 -5 7 -10 15 -10
8 0 15 7 15 15 0 8 9 15 20 15 11 0 20 -7 20 -15 0 -8 4 -15 9 -15 5 0 11 7
15 15 3 8 17 15 31 15 14 0 28 7 31 15 8 21 97 20 118 -1z m1531 -4 c3 -5 1
-10 -4 -10 -6 0 -11 5 -11 10 0 6 2 10 4 10 3 0 8 -4 11 -10z m-665 -60 c0 -5
-11 -10 -25 -10 -14 0 -25 5 -25 10 0 6 11 10 25 10 14 0 25 -4 25 -10z m70
-35 c0 -10 10 -15 30 -15 20 0 30 -5 30 -15 0 -8 7 -15 15 -15 8 0 15 -7 15
-15 0 -8 9 -15 20 -15 11 0 20 -7 20 -15 0 -9 9 -15 25 -15 14 0 28 -7 31 -15
4 -8 12 -15 20 -15 8 0 14 -9 14 -20 0 -11 7 -20 15 -20 8 0 15 -7 15 -15 0
-8 6 -15 14 -15 8 0 17 -13 21 -30 4 -16 10 -30 15 -30 5 0 11 -13 15 -30 4
-16 13 -30 21 -30 8 0 14 -7 14 -15 0 -8 7 -15 15 -15 8 0 15 -9 15 -20 0 -11
6 -20 14 -20 8 0 17 -13 21 -30 4 -16 11 -30 16 -30 5 0 9 -26 9 -57 0 -32 3
-68 6 -80 7 -26 34 -32 34 -8 0 26 17 16 22 -12 3 -16 6 -64 7 -108 1 -44 7
-81 12 -83 12 -5 12 -32 -1 -32 -5 0 -10 -22 -10 -49 0 -45 2 -49 27 -56 15
-3 22 -9 16 -13 -6 -4 -12 -40 -15 -81 -2 -45 -9 -76 -16 -79 -6 -2 -14 -26
-18 -53 -4 -27 -10 -49 -15 -49 -5 0 -9 -13 -9 -30 0 -16 5 -30 10 -30 6 0 10
-9 10 -20 0 -11 -7 -20 -15 -20 -8 0 -15 -7 -15 -15 0 -8 -4 -15 -9 -15 -5 0
-12 -13 -16 -29 -3 -16 -13 -32 -21 -35 -8 -3 -14 -17 -14 -31 0 -16 -6 -25
-15 -25 -10 0 -15 -11 -15 -35 0 -24 -5 -35 -15 -35 -8 0 -15 -7 -15 -15 0 -8
-7 -15 -15 -15 -8 0 -15 -6 -15 -12 0 -16 -44 -58 -59 -58 -6 0 -11 -7 -11
-15 0 -8 -7 -15 -15 -15 -8 0 -15 -7 -15 -15 0 -8 -6 -15 -14 -15 -7 0 -16 -9
-19 -20 -3 -14 -14 -20 -31 -20 -16 0 -26 -6 -26 -15 0 -8 -9 -15 -20 -15 -11
0 -20 -4 -20 -10 0 -5 -12 -13 -27 -16 -16 -4 -31 -12 -35 -17 -3 -6 -31 -12
-62 -15 -47 -4 -56 -2 -56 12 0 13 -13 16 -81 16 -58 0 -85 -4 -95 -15 -9 -8
-24 -15 -36 -15 -11 0 -18 -5 -16 -12 3 -8 27 -14 61 -16 42 -2 57 -7 57 -17
0 -12 -16 -15 -75 -15 -60 0 -75 3 -75 15 0 12 -19 15 -114 15 -89 0 -118 3
-130 15 -8 8 -22 15 -30 15 -9 0 -16 7 -16 15 0 11 -12 15 -45 15 -51 0 -60
-15 -15 -25 17 -4 30 -13 30 -21 0 -8 7 -14 15 -14 8 0 15 -7 15 -15 0 -8 -7
-15 -15 -15 -8 0 -15 6 -15 14 0 8 -16 15 -41 19 -23 3 -45 10 -48 15 -3 5
-17 13 -30 17 -31 10 -71 53 -71 76 0 14 -7 19 -30 19 -20 0 -30 5 -30 15 0 8
-7 15 -15 15 -8 0 -15 6 -15 14 0 7 -9 16 -20 19 -14 3 -20 14 -20 31 0 16 -6
26 -15 26 -8 0 -15 9 -15 20 0 11 -7 20 -15 20 -10 0 -15 10 -15 30 0 20 -5
30 -15 30 -10 0 -15 -10 -15 -30 0 -20 -5 -30 -15 -30 -10 0 -15 10 -15 30 0
19 -5 30 -14 30 -9 0 -15 24 -19 92 -7 105 0 122 59 132 20 4 34 13 34 21 0 8
7 15 15 15 8 0 15 7 15 15 0 10 10 15 29 15 16 0 31 6 35 15 3 9 18 15 36 15
27 0 30 -3 30 -30 0 -20 -5 -30 -15 -30 -8 0 -15 -9 -15 -20 0 -11 -7 -20 -15
-20 -8 0 -15 -7 -15 -15 0 -19 19 -19 26 0 4 8 12 15 20 15 8 0 14 7 14 15 0
8 7 15 15 15 8 0 15 9 15 20 0 11 6 20 14 20 8 0 16 7 20 15 9 24 24 17 31
-15 4 -16 10 -30 15 -30 5 0 11 14 15 30 4 17 13 30 21 30 8 0 14 7 14 15 0
10 10 15 33 15 23 0 28 3 18 9 -17 11 7 18 69 23 30 3 35 7 38 29 3 25 7 27
58 31 31 3 59 9 62 15 4 5 15 12 25 16 9 3 17 13 17 22 0 11 11 15 45 15 43 0
45 1 45 30 0 27 3 30 31 30 22 0 32 5 36 20 3 11 9 20 14 20 5 0 8 6 6 12 -1
7 8 14 21 16 12 2 22 10 22 18 0 8 7 14 15 14 8 0 15 7 15 15 0 8 7 15 15 15
8 0 15 7 15 15 0 9 9 15 21 15 19 0 20 5 17 48 -3 47 -3 47 30 50 31 3 32 5
32 47 0 38 3 44 28 50 l27 8 -27 10 c-21 8 -28 17 -28 39 0 18 5 28 15 28 11
0 15 12 15 50 0 38 4 50 15 50 10 0 15 11 15 35 0 24 5 35 15 35 8 0 15 5 15
11 0 7 7 17 16 24 15 11 15 12 1 18 -9 3 -23 0 -31 -8 -8 -8 -24 -15 -35 -15
-17 0 -21 6 -21 30 0 17 7 33 18 39 16 9 16 11 -2 24 -20 15 -14 37 10 37 10
0 14 13 14 46 0 29 -4 43 -11 39 -6 -4 -13 2 -16 14 -3 12 -12 21 -19 21 -8 0
-14 7 -14 16 0 9 -9 18 -20 21 -32 9 -23 23 15 23 24 0 35 -5 35 -15z m-70
-95 c0 -5 -4 -10 -10 -10 -5 0 -10 5 -10 10 0 6 5 10 10 10 6 0 10 -4 10 -10z
m-1870 -250 c0 -5 -7 -10 -15 -10 -8 0 -15 5 -15 10 0 6 7 10 15 10 8 0 15 -4
15 -10z m478 -32 c-7 -20 -58 -23 -58 -4 0 11 10 16 31 16 20 0 29 -4 27 -12z
m2032 -158 c0 -11 6 -20 14 -20 18 0 25 -31 19 -80 -5 -33 -3 -40 11 -40 12 0
16 -10 16 -42 0 -57 9 -88 26 -88 9 0 14 -11 14 -30 0 -20 5 -30 15 -30 12 0
15 -18 15 -99 0 -69 4 -101 12 -103 7 -3 14 -32 16 -76 3 -53 8 -72 18 -72 9
0 14 -12 14 -35 0 -24 -5 -35 -15 -35 -8 0 -15 -7 -15 -15 0 -8 -7 -15 -15
-15 -17 0 -19 -17 -15 -157 2 -77 -1 -94 -14 -99 -9 -3 -16 -16 -16 -28 0 -48
-11 -66 -41 -66 -19 0 -29 -5 -29 -15 0 -10 -10 -15 -30 -15 -20 0 -30 -5 -30
-15 0 -10 10 -15 30 -15 27 0 30 -3 30 -30 0 -20 -5 -30 -15 -30 -8 0 -15 -9
-15 -20 0 -11 7 -20 15 -20 10 0 15 -10 15 -30 0 -20 -5 -30 -15 -30 -10 0
-15 10 -15 30 0 20 -5 30 -15 30 -9 0 -18 7 -21 15 -10 25 -24 17 -24 -15 0
-20 -5 -30 -15 -30 -8 0 -15 -7 -15 -15 0 -8 -6 -15 -14 -15 -8 0 -18 -14 -21
-32 -4 -17 -14 -38 -21 -46 -8 -7 -14 -20 -14 -28 0 -8 -7 -14 -15 -14 -8 0
-15 -9 -15 -20 0 -11 -7 -20 -15 -20 -8 0 -15 -7 -15 -15 0 -8 -9 -15 -20 -15
-11 0 -20 -7 -20 -15 0 -8 -7 -15 -15 -15 -8 0 -15 -7 -15 -15 0 -8 -7 -15
-15 -15 -8 0 -15 5 -15 10 0 6 -7 10 -15 10 -8 0 -15 -7 -15 -15 0 -8 7 -15
15 -15 8 0 15 -4 15 -10 0 -5 -7 -10 -15 -10 -8 0 -15 5 -15 10 0 6 -7 10 -15
10 -8 0 -15 -7 -15 -15 0 -8 -7 -15 -15 -15 -8 0 -15 -7 -15 -15 0 -8 -7 -15
-15 -15 -8 0 -15 -7 -15 -15 0 -8 -9 -15 -20 -15 -11 0 -20 -7 -20 -15 0 -10
-10 -15 -34 -15 -19 0 -41 -7 -50 -15 -8 -8 -28 -15 -45 -15 -21 0 -31 -5 -31
-15 0 -8 -7 -15 -15 -15 -8 0 -15 7 -15 15 0 8 -7 15 -15 15 -8 0 -15 5 -15
10 0 6 7 13 15 16 8 4 15 12 15 20 0 9 11 14 29 14 23 0 30 5 36 27 5 20 2 31
-12 41 -13 10 -14 16 -5 19 21 8 13 32 -12 39 -14 3 -27 12 -30 20 -4 10 -24
14 -71 14 -51 0 -65 3 -65 15 0 12 19 15 115 15 108 0 115 1 115 20 0 11 -7
20 -15 20 -8 0 -15 4 -15 9 0 5 23 11 50 15 34 5 50 11 50 21 0 8 5 15 10 15
6 0 10 14 10 30 0 21 5 30 16 30 8 0 22 7 30 15 9 8 24 15 35 15 10 0 19 7 19
15 0 8 7 15 15 15 8 0 15 6 15 14 0 8 14 17 30 21 17 4 30 13 30 21 0 8 7 14
15 14 8 0 15 7 15 15 0 8 -4 15 -10 15 -5 0 -10 7 -10 15 0 8 7 15 15 15 8 0
15 7 15 15 0 8 7 15 15 15 8 0 15 6 15 14 0 8 14 17 30 21 25 5 30 11 30 36 0
17 8 36 20 46 11 10 20 23 20 30 0 7 5 13 10 13 6 0 10 7 10 15 0 8 7 15 15
15 8 0 15 7 15 15 0 8 -4 15 -10 15 -15 0 -12 29 5 46 8 9 15 24 15 35 0 10 7
19 15 19 11 0 15 12 15 50 0 38 4 50 15 50 10 0 15 10 15 30 0 20 5 30 15 30
11 0 15 12 15 45 0 33 -4 45 -15 45 -19 0 -19 26 0 37 18 11 18 14 17 211 -2
137 -4 162 -17 162 -8 0 -15 9 -15 20 0 11 -7 20 -15 20 -12 0 -15 14 -15 65
0 51 3 65 15 65 8 0 15 -9 15 -20z m-2640 -70 c0 -5 6 -10 14 -10 15 0 26 -30
26 -72 0 -14 6 -29 13 -32 10 -5 10 -7 0 -12 -7 -3 -13 -21 -13 -40 0 -22 -5
-34 -14 -34 -9 0 -15 19 -19 61 -3 34 -9 65 -14 68 -15 10 -24 42 -18 62 7 20
25 26 25 9z m987 -57 c2 -6 -10 -14 -26 -18 -17 -4 -31 -11 -31 -16 0 -12 53
-12 66 1 7 7 17 0 32 -20 21 -28 27 -30 87 -30 51 0 65 -3 65 -15 0 -8 7 -15
15 -15 10 0 15 -10 15 -29 0 -16 3 -37 6 -46 5 -11 0 -18 -15 -22 -11 -3 -21
-12 -21 -19 0 -8 -7 -14 -15 -14 -8 0 -15 -4 -15 -10 0 -15 -97 -13 -103 3 -8
22 5 77 19 77 8 0 14 7 14 15 0 8 6 15 13 15 8 0 14 7 14 15 0 12 -17 15 -94
15 -76 0 -93 -3 -93 -15 0 -10 11 -15 35 -15 28 0 35 -4 35 -20 0 -11 5 -20
11 -20 6 0 4 -7 -5 -15 -8 -8 -19 -15 -25 -15 -6 0 -11 -4 -11 -10 0 -5 -13
-10 -29 -10 -25 0 -31 5 -36 30 -4 17 -13 30 -21 30 -8 0 -14 7 -14 15 0 8 6
15 14 15 8 0 16 7 20 15 4 10 -1 15 -14 15 -11 0 -20 5 -20 11 0 5 -4 8 -9 5
-5 -3 -12 1 -15 10 -10 27 -7 44 9 44 8 0 15 4 15 9 0 5 13 12 29 16 16 3 32
13 35 21 7 18 57 16 63 -3z m-577 -63 c0 -5 -11 -10 -25 -10 -14 0 -25 5 -25
10 0 6 11 10 25 10 14 0 25 -4 25 -10z m-190 -65 c0 -8 -4 -15 -10 -15 -5 0
-10 7 -10 15 0 8 5 15 10 15 6 0 10 -7 10 -15z m-120 -85 c0 -21 5 -30 16 -30
20 0 44 -24 44 -44 0 -9 -7 -16 -15 -16 -9 0 -15 9 -15 21 0 18 -4 20 -30 14
-30 -7 -30 -6 -30 39 0 34 4 46 15 46 10 0 15 -10 15 -30z m-100 -10 c0 -5 -4
-10 -10 -10 -5 0 -10 5 -10 10 0 6 5 10 10 10 6 0 10 -4 10 -10z m-52 -33 c3
-14 -4 -17 -32 -17 -25 0 -36 5 -36 14 0 28 63 31 68 3z m82 -17 c0 -16 -4
-30 -10 -30 -5 0 -10 3 -10 8 0 4 -3 17 -6 30 -5 16 -2 22 10 22 11 0 16 -9
16 -30z m540 -45 c0 -8 -4 -15 -10 -15 -5 0 -10 7 -10 15 0 8 5 15 10 15 6 0
10 -7 10 -15z m421 -37 c0 -10 2 -10 6 0 7 17 23 15 23 -3 0 -8 7 -15 15 -15
8 0 15 -4 15 -10 0 -6 -27 -10 -60 -10 -33 0 -60 2 -60 5 0 3 8 14 18 24 20
22 42 27 43 9z m-1051 -48 c0 -20 5 -30 15 -30 8 0 15 9 15 20 0 11 7 20 15
20 21 0 20 -56 -1 -64 -27 -10 -44 -7 -61 14 -10 11 -23 20 -30 20 -7 0 -13
11 -13 25 0 21 5 25 30 25 27 0 30 -3 30 -30z m670 20 c0 -5 -7 -10 -15 -10
-8 0 -15 5 -15 10 0 6 7 10 15 10 8 0 15 -4 15 -10z m-502 -32 c-7 -19 -38
-22 -38 -4 0 10 9 16 21 16 12 0 19 -5 17 -12z m-78 -78 c0 -16 -4 -30 -10
-30 -5 0 -10 14 -10 30 0 17 5 30 10 30 6 0 10 -13 10 -30z m100 -21 c0 -66
-24 -62 -28 4 -2 37 0 47 12 47 12 0 16 -12 16 -51z m980 36 c0 -8 -7 -15 -15
-15 -8 0 -15 -7 -15 -15 0 -10 -10 -15 -30 -15 -20 0 -30 -5 -30 -15 0 -10
-10 -15 -30 -15 -27 0 -30 3 -30 30 0 20 5 30 15 30 8 0 15 7 15 15 0 12 13
15 60 15 47 0 60 -3 60 -15z m-1140 -190 c0 -10 -10 -15 -30 -15 -20 0 -30 5
-30 15 0 10 10 15 30 15 20 0 30 -5 30 -15z m30 -130 c0 -8 -7 -15 -15 -15 -8
0 -15 -7 -15 -16 0 -9 -5 -14 -12 -12 -18 6 -21 28 -4 28 9 0 16 7 16 15 0 8
7 15 15 15 8 0 15 -7 15 -15z m30 -25 c0 -5 -4 -10 -10 -10 -5 0 -10 5 -10 10
0 6 5 10 10 10 6 0 10 -4 10 -10z m990 -125 c0 -8 -7 -15 -15 -15 -8 0 -15 7
-15 15 0 8 7 15 15 15 8 0 15 -7 15 -15z m-420 -70 c0 -8 -4 -15 -10 -15 -5 0
-10 7 -10 15 0 8 5 15 10 15 6 0 10 -7 10 -15z m485 -15 c4 -16 11 -30 16 -30
5 0 9 -7 9 -15 0 -8 -4 -15 -10 -15 -5 0 -10 7 -10 15 0 8 -9 15 -20 15 -16 0
-20 7 -20 30 0 19 5 30 14 30 8 0 17 -13 21 -30z m435 -205 c0 -8 -4 -15 -10
-15 -5 0 -10 7 -10 15 0 8 5 15 10 15 6 0 10 -7 10 -15z m420 0 c0 -8 -7 -15
-15 -15 -8 0 -15 7 -15 15 0 8 7 15 15 15 8 0 15 -7 15 -15z m1360 0 c0 -8 -4
-15 -10 -15 -5 0 -10 7 -10 15 0 8 5 15 10 15 6 0 10 -7 10 -15z m-2510 -225
c0 -5 -4 -10 -10 -10 -5 0 -10 5 -10 10 0 6 5 10 10 10 6 0 10 -4 10 -10z
m900 -30 c0 -5 7 -10 15 -10 8 0 15 -9 15 -20 0 -11 7 -20 15 -20 10 0 15 -10
15 -30 0 -20 -5 -30 -15 -30 -10 0 -15 10 -15 30 0 20 -5 30 -15 30 -8 0 -15
6 -15 14 0 8 -13 17 -30 21 -16 4 -30 11 -30 16 0 5 14 9 30 9 17 0 30 -4 30
-10z m130 0 c0 -5 11 -12 25 -16 23 -6 25 -11 25 -65 0 -33 -4 -59 -10 -59 -5
0 -10 14 -10 30 0 20 -5 30 -15 30 -10 0 -15 11 -15 35 0 24 -5 35 -15 35 -8
0 -15 5 -15 10 0 6 7 10 15 10 8 0 15 -4 15 -10z m-420 -50 c0 -20 5 -30 15
-30 8 0 15 -7 15 -15 0 -10 -10 -15 -30 -15 -29 0 -30 2 -30 45 0 33 4 45 15
45 10 0 15 -10 15 -30z m600 20 c0 -5 -4 -10 -10 -10 -5 0 -10 5 -10 10 0 6 5
10 10 10 6 0 10 -4 10 -10z m-30 -30 c0 -5 -4 -10 -10 -10 -5 0 -10 5 -10 10
0 6 5 10 10 10 6 0 10 -4 10 -10z m-440 -65 c0 -33 -4 -45 -15 -45 -11 0 -15
12 -15 45 0 33 4 45 15 45 11 0 15 -12 15 -45z m325 -62 c23 -14 20 -15 -52
-18 -35 -1 -53 2 -53 10 0 6 2 14 5 16 9 10 80 4 100 -8z m-135 -33 c0 -5 -7
-10 -15 -10 -8 0 -15 5 -15 10 0 6 7 10 15 10 8 0 15 -4 15 -10z m190 0 c0 -5
16 -12 35 -16 20 -3 35 -12 35 -20 0 -9 -12 -14 -35 -14 -24 0 -35 5 -35 15 0
18 -36 20 -43 3 -2 -8 -8 -9 -13 -4 -5 5 -4 11 4 13 6 3 12 11 12 19 0 8 9 14
20 14 11 0 20 -4 20 -10z m115 0 c3 -5 1 -10 -4 -10 -6 0 -11 5 -11 10 0 6 2
10 4 10 3 0 8 -4 11 -10z m75 0 c0 -5 -7 -10 -15 -10 -8 0 -15 5 -15 10 0 6 7
10 15 10 8 0 15 -4 15 -10z m-510 -65 c0 -8 -7 -15 -15 -15 -16 0 -20 12 -8
23 11 12 23 8 23 -8z m98 -36 c2 -5 17 -9 33 -9 19 0 29 -5 29 -15 0 -10 -10
-15 -30 -15 -20 0 -30 5 -30 15 0 10 -10 15 -30 15 -21 0 -30 5 -30 16 0 13 6
15 28 9 15 -3 29 -11 30 -16z"/>
<path d="M1720 3226 c0 -9 7 -16 16 -16 9 0 14 5 12 12 -6 18 -28 21 -28 4z"/>
<path d="M1003 3043 c-24 -9 -13 -23 18 -23 20 0 29 4 27 13 -5 13 -26 18 -45
10z"/>
<path d="M990 2964 c0 -12 6 -15 23 -10 12 3 25 6 30 6 4 0 7 5 7 10 0 6 -13
10 -30 10 -21 0 -30 -5 -30 -16z"/>
<path d="M760 2875 c0 -8 7 -15 15 -15 8 0 15 7 15 15 0 8 -7 15 -15 15 -8 0
-15 -7 -15 -15z"/>
<path d="M1340 2875 c0 -12 13 -15 60 -15 47 0 60 3 60 15 0 12 -13 15 -60 15
-47 0 -60 -3 -60 -15z"/>
<path d="M1500 2840 c0 -5 5 -10 10 -10 6 0 10 5 10 10 0 6 -4 10 -10 10 -5 0
-10 -4 -10 -10z"/>
<path d="M1560 2810 c0 -5 5 -10 10 -10 6 0 10 5 10 10 0 6 -4 10 -10 10 -5 0
-10 -4 -10 -10z"/>
<path d="M890 2745 c0 -8 -7 -15 -15 -15 -8 0 -15 -9 -15 -19 0 -11 -7 -26
-15 -35 -17 -16 -21 -66 -5 -66 6 0 10 5 10 10 0 6 9 10 20 10 13 0 20 7 20
20 0 11 7 20 15 20 11 0 15 12 15 45 0 33 -4 45 -15 45 -8 0 -15 -7 -15 -15z"/>
<path d="M2800 2961 c0 -10 7 -22 16 -25 23 -9 34 -7 34 4 0 6 -7 10 -15 10
-8 0 -15 7 -15 15 0 8 -4 15 -10 15 -5 0 -10 -9 -10 -19z"/>
<path d="M1710 1825 c0 -8 7 -15 15 -15 8 0 15 7 15 15 0 8 -7 15 -15 15 -8 0
-15 -7 -15 -15z"/>
<path d="M1620 1710 c0 -20 5 -30 15 -30 10 0 15 10 15 30 0 20 -5 30 -15 30
-10 0 -15 -10 -15 -30z"/>
<path d="M2670 1475 c0 -8 7 -15 15 -15 8 0 15 7 15 15 0 8 -7 15 -15 15 -8 0
-15 -7 -15 -15z"/>
<path d="M2813 1203 c-12 -4 -19 -83 -8 -83 13 0 55 55 55 71 0 19 -20 24 -47
12z"/>
<path d="M2860 1125 c0 -8 7 -15 15 -15 8 0 15 7 15 15 0 8 -7 15 -15 15 -8 0
-15 -7 -15 -15z"/>
<path d="M2830 1095 c0 -8 5 -15 10 -15 6 0 10 7 10 15 0 8 -4 15 -10 15 -5 0
-10 -7 -10 -15z"/>
<path d="M2280 3730 c0 -5 9 -10 20 -10 11 0 20 5 20 10 0 6 -9 10 -20 10 -11
0 -20 -4 -20 -10z"/>
<path d="M2513 3635 c0 -8 6 -15 14 -15 7 0 13 7 13 15 0 8 -6 15 -13 15 -8 0
-14 -7 -14 -15z"/>
<path d="M2830 3570 c0 -5 5 -10 10 -10 6 0 10 5 10 10 0 6 -4 10 -10 10 -5 0
-10 -4 -10 -10z"/>
<path d="M2950 3475 c0 -8 7 -15 15 -15 8 0 15 7 15 15 0 8 -7 15 -15 15 -8 0
-15 -7 -15 -15z"/>
<path d="M3927 2816 c-7 -18 17 -28 49 -20 30 8 31 20 2 28 -35 9 -45 7 -51
-8z"/>
<path d="M3907 883 c-13 -12 -7 -53 7 -53 14 0 29 37 20 52 -6 10 -18 10 -27
1z"/>
<path d="M3750 460 c0 -5 7 -10 15 -10 8 0 15 5 15 10 0 6 -7 10 -15 10 -8 0
-15 -4 -15 -10z"/>
<path d="M2890 240 c0 -5 6 -10 14 -10 8 0 18 5 21 10 3 6 -3 10 -14 10 -12 0
-21 -4 -21 -10z"/>
<path d="M2610 175 c0 -8 5 -15 10 -15 6 0 10 7 10 15 0 8 -4 15 -10 15 -5 0
-10 -7 -10 -15z"/>
<path d="M2640 130 c0 -16 5 -30 10 -30 6 0 10 14 10 30 0 17 -4 30 -10 30 -5
0 -10 -13 -10 -30z"/>
<path d="M3370 140 c0 -5 5 -10 10 -10 6 0 10 5 10 10 0 6 -4 10 -10 10 -5 0
-10 -4 -10 -10z"/>
<path d="M2390 110 c0 -5 5 -10 10 -10 6 0 10 5 10 10 0 6 -4 10 -10 10 -5 0
-10 -4 -10 -10z"/>
<path d="M2480 110 c0 -5 5 -10 10 -10 6 0 10 5 10 10 0 6 -4 10 -10 10 -5 0
-10 -4 -10 -10z"/>
<path d="M2540 80 c0 -5 7 -10 15 -10 8 0 15 5 15 10 0 6 -7 10 -15 10 -8 0
-15 -4 -15 -10z"/>
<path d="M3210 80 c0 -5 7 -10 15 -10 8 0 15 5 15 10 0 6 -7 10 -15 10 -8 0
-15 -4 -15 -10z"/>
<path d="M2670 51 c0 -12 6 -21 16 -21 9 0 14 7 12 17 -5 25 -28 28 -28 4z"/>
</g>
</svg>
